<svg width="29" height="30" viewBox="0 0 29 30" fill="none" xmlns="http://www.w3.org/2000/svg">
<path d="M12.7962 16.7038C13.2917 17.1751 13.2917 17.9484 12.7962 18.4196C12.325 18.8909 11.5517 18.8909 11.0804 18.4196C8.72416 16.0634 8.72416 12.233 11.0804 9.87672L15.3579 5.59922C17.7142 3.24297 21.5446 3.24297 23.9008 5.59922C26.2571 7.95547 26.2571 11.7859 23.9008 14.1421L22.1004 15.9426C22.1125 14.9517 21.9554 13.9609 21.6171 13.0184L22.185 12.4384C23.6108 11.0246 23.6108 8.7288 22.185 7.31505C20.7712 5.88922 18.4754 5.88922 17.0617 7.31505L12.7962 11.5805C11.3704 12.9942 11.3704 15.2901 12.7962 16.7038ZM16.2037 11.5805C16.675 11.1092 17.4483 11.1092 17.9196 11.5805C20.2758 13.9367 20.2758 17.7671 17.9196 20.1234L13.6421 24.4009C11.2858 26.7571 7.45541 26.7571 5.09916 24.4009C2.74291 22.0446 2.74291 18.2142 5.09916 15.858L6.89957 14.0576C6.88749 15.0484 7.04458 16.0392 7.38291 16.9938L6.81499 17.5617C5.38916 18.9755 5.38916 21.2713 6.81499 22.6851C8.22874 24.1109 10.5246 24.1109 11.9383 22.6851L16.2037 18.4196C17.6296 17.0059 17.6296 14.7101 16.2037 13.2963C15.7083 12.8251 15.7083 12.0517 16.2037 11.5805Z" fill="#121212"/>
</svg>
