<svg width="29" height="30" viewBox="0 0 29 30" fill="none" xmlns="http://www.w3.org/2000/svg">
<path d="M12.7962 16.3933C13.2917 16.8645 13.2917 17.6378 12.7962 18.1091C12.325 18.5803 11.5517 18.5803 11.0804 18.1091C8.72416 15.7528 8.72416 11.9224 11.0804 9.56617L15.3579 5.28867C17.7142 2.93242 21.5446 2.93242 23.9008 5.28867C26.2571 7.64492 26.2571 11.4753 23.9008 13.8316L22.1004 15.632C22.1125 14.6412 21.9554 13.6503 21.6171 12.7078L22.185 12.1278C23.6108 10.7141 23.6108 8.41826 22.185 7.00451C20.7712 5.57867 18.4754 5.57867 17.0617 7.00451L12.7962 11.2699C11.3704 12.6837 11.3704 14.9795 12.7962 16.3933ZM16.2037 11.2699C16.675 10.7987 17.4483 10.7987 17.9196 11.2699C20.2758 13.6262 20.2758 17.4566 17.9196 19.8128L13.6421 24.0903C11.2858 26.4466 7.45541 26.4466 5.09916 24.0903C2.74291 21.7341 2.74291 17.9037 5.09916 15.5474L6.89957 13.747C6.88749 14.7378 7.04458 15.7287 7.38291 16.6833L6.81499 17.2512C5.38916 18.6649 5.38916 20.9608 6.81499 22.3745C8.22874 23.8003 10.5246 23.8003 11.9383 22.3745L16.2037 18.1091C17.6296 16.6953 17.6296 14.3995 16.2037 12.9858C15.7083 12.5145 15.7083 11.7412 16.2037 11.2699Z" fill="#121212"/>
</svg>
