<svg width="45" height="65" viewBox="0 0 45 65" fill="none" xmlns="http://www.w3.org/2000/svg">
<path fill-rule="evenodd" clip-rule="evenodd" d="M39.5751 39.7976C38.1584 45.201 35.5512 49.3758 31.8104 51.586V39.7976L36.2879 33.9854L31.8104 28.2551V20.1509C35.8911 19.7416 38.7248 15.403 38.7248 10.0821C38.7248 3.12397 34.1345 0.667969 31.5273 0.667969C30.9608 0.667969 30.3371 0.667969 29.4307 0.995196V1.32275C29.7707 1.32275 30.2803 1.24103 30.4507 1.24103C32.2644 1.24103 33.6246 2.46886 33.6246 4.84282C33.6246 6.64371 32.6044 8.44461 30.7909 8.44461C26.3135 8.44461 21.0428 3.2057 15.3188 3.2057C10.2181 3.2057 6.70455 8.69011 6.70455 14.2569C6.70455 19.7416 8.91475 21.5425 11.2383 22.7704L11.2951 22.4428C10.5583 21.788 10.0481 20.6422 10.0481 18.841C10.0481 16.3853 11.6351 14.339 13.6187 14.339C18.4359 14.339 26.2001 20.1509 31.0174 20.1509H31.4707V28.3372L26.9935 33.9854L31.4707 39.7976V51.7495C29.6007 52.7315 27.6736 53.1414 25.69 53.1414C18.2091 53.1414 13.4488 46.5919 13.4488 35.7045C13.4488 33.0854 13.6753 30.5473 14.1854 28.0913L17.9257 25.7177V49.7848L25.52 44.9555V20.3147L14.3554 27.5183C15.4888 22.7704 17.8124 19.3324 20.5895 17.3677L20.5329 17.1222C13.0518 19.4961 5.7977 27.6824 5.7977 39.9614C5.7977 54.1234 14.072 63.9471 23.7067 63.9471C33.9077 63.9471 39.6885 54.1234 39.7451 39.7976H39.5751Z" fill="black"/>
</svg>
