<svg width="29" height="30" viewBox="0 0 29 30" fill="none" xmlns="http://www.w3.org/2000/svg">
<path d="M12.7962 16.3952C13.2917 16.8665 13.2917 17.6398 12.7962 18.111C12.325 18.5823 11.5517 18.5823 11.0804 18.111C8.72416 15.7548 8.72416 11.9244 11.0804 9.56813L15.3579 5.29063C17.7142 2.93438 21.5446 2.93438 23.9008 5.29063C26.2571 7.64688 26.2571 11.4773 23.9008 13.8335L22.1004 15.634C22.1125 14.6431 21.9554 13.6523 21.6171 12.7098L22.185 12.1298C23.6108 10.716 23.6108 8.42021 22.185 7.00646C20.7712 5.58063 18.4754 5.58063 17.0617 7.00646L12.7962 11.2719C11.3704 12.6856 11.3704 14.9815 12.7962 16.3952ZM16.2037 11.2719C16.675 10.8006 17.4483 10.8006 17.9196 11.2719C20.2758 13.6281 20.2758 17.4585 17.9196 19.8148L13.6421 24.0923C11.2858 26.4485 7.45541 26.4485 5.09916 24.0923C2.74291 21.736 2.74291 17.9056 5.09916 15.5494L6.89957 13.749C6.88749 14.7398 7.04458 15.7306 7.38291 16.6852L6.81499 17.2531C5.38916 18.6669 5.38916 20.9627 6.81499 22.3765C8.22874 23.8023 10.5246 23.8023 11.9383 22.3765L16.2037 18.111C17.6296 16.6973 17.6296 14.4015 16.2037 12.9877C15.7083 12.5165 15.7083 11.7431 16.2037 11.2719Z" fill="#121212"/>
</svg>
