<svg width="29" height="30" viewBox="0 0 29 30" fill="none" xmlns="http://www.w3.org/2000/svg">
<path d="M12.7962 16.3913C13.2917 16.8626 13.2917 17.6359 12.7962 18.1071C12.325 18.5784 11.5517 18.5784 11.0804 18.1071C8.72416 15.7509 8.72416 11.9205 11.0804 9.56422L15.3579 5.28672C17.7142 2.93047 21.5446 2.93047 23.9008 5.28672C26.2571 7.64297 26.2571 11.4734 23.9008 13.8296L22.1004 15.6301C22.1125 14.6392 21.9554 13.6484 21.6171 12.7059L22.185 12.1259C23.6108 10.7121 23.6108 8.4163 22.185 7.00255C20.7712 5.57672 18.4754 5.57672 17.0617 7.00255L12.7962 11.268C11.3704 12.6817 11.3704 14.9776 12.7962 16.3913ZM16.2037 11.268C16.675 10.7967 17.4483 10.7967 17.9196 11.268C20.2758 13.6242 20.2758 17.4546 17.9196 19.8109L13.6421 24.0884C11.2858 26.4446 7.45541 26.4446 5.09916 24.0884C2.74291 21.7321 2.74291 17.9017 5.09916 15.5455L6.89957 13.7451C6.88749 14.7359 7.04458 15.7267 7.38291 16.6813L6.81499 17.2492C5.38916 18.663 5.38916 20.9588 6.81499 22.3726C8.22874 23.7984 10.5246 23.7984 11.9383 22.3726L16.2037 18.1071C17.6296 16.6934 17.6296 14.3976 16.2037 12.9838C15.7083 12.5126 15.7083 11.7392 16.2037 11.268Z" fill="#121212"/>
</svg>
