<svg width="29" height="30" viewBox="0 0 29 30" fill="none" xmlns="http://www.w3.org/2000/svg">
<path d="M12.7962 16.3942C13.2917 16.8655 13.2917 17.6388 12.7962 18.1101C12.325 18.5813 11.5517 18.5813 11.0804 18.1101C8.72416 15.7538 8.72416 11.9234 11.0804 9.56715L15.3579 5.28965C17.7142 2.9334 21.5446 2.9334 23.9008 5.28965C26.2571 7.6459 26.2571 11.4763 23.9008 13.8326L22.1004 15.633C22.1125 14.6421 21.9554 13.6513 21.6171 12.7088L22.185 12.1288C23.6108 10.7151 23.6108 8.41923 22.185 7.00548C20.7712 5.57965 18.4754 5.57965 17.0617 7.00548L12.7962 11.2709C11.3704 12.6846 11.3704 14.9805 12.7962 16.3942ZM16.2037 11.2709C16.675 10.7996 17.4483 10.7996 17.9196 11.2709C20.2758 13.6271 20.2758 17.4576 17.9196 19.8138L13.6421 24.0913C11.2858 26.4476 7.45541 26.4476 5.09916 24.0913C2.74291 21.7351 2.74291 17.9046 5.09916 15.5484L6.89957 13.748C6.88749 14.7388 7.04458 15.7296 7.38291 16.6842L6.81499 17.2521C5.38916 18.6659 5.38916 20.9617 6.81499 22.3755C8.22874 23.8013 10.5246 23.8013 11.9383 22.3755L16.2037 18.1101C17.6296 16.6963 17.6296 14.4005 16.2037 12.9867C15.7083 12.5155 15.7083 11.7421 16.2037 11.2709Z" fill="#121212"/>
</svg>
