<svg width="22" height="25" viewBox="0 0 22 25" fill="none" xmlns="http://www.w3.org/2000/svg">
<g clip-path="url(#clip0_2702_254)">
<path d="M6.84196 2.20372H0.329956V8.71572L3.12396 5.92172L7.23796 10.0137L8.16196 9.08972L4.04796 4.99772L6.84196 2.20372ZM7.23796 13.9297L3.12396 18.0217L0.329956 15.2277V21.7617H6.84196L4.04796 18.9457L8.16196 14.8537L7.23796 13.9297ZM12.98 13.9297L12.056 14.8537L16.17 18.9457L13.376 21.7617H19.888V15.2277L17.094 18.0217L12.98 13.9297ZM13.376 2.20372L16.17 4.99772L12.056 9.08972L12.98 10.0137L17.094 5.92172L19.888 8.71572V2.20372H13.376Z" fill="white" fill-opacity="0.8"/>
</g>
<defs>
<clipPath id="clip0_2702_254">
<rect width="21.67" height="24" fill="white" transform="matrix(1 0 0 -1 0.329956 24.1699)"/>
</clipPath>
</defs>
</svg>
