<svg width="196" height="27" viewBox="0 0 196 27" fill="none" xmlns="http://www.w3.org/2000/svg">
<g clip-path="url(#clip0_2702_91)">
<path d="M15.9725 2.72225C15.9725 0.582662 13.9385 -0.0634502 12.2329 0.0106938V0.20135C13.2499 0.275494 14.0338 0.688582 14.0338 1.37706C14.0338 1.8537 13.6948 2.44685 12.6778 2.44685C11.8727 2.44685 10.5379 1.97021 9.28784 1.55713C7.91065 1.08049 6.59702 0.635622 5.50586 0.635622C3.36592 0.635622 1.74508 2.22442 1.74508 4.19453C1.74508 5.78333 2.97395 6.33412 3.47186 6.53537L3.50364 6.46122C3.18583 6.24938 2.98455 6.01636 2.98455 5.33847C2.98455 4.7665 3.3977 4.00388 4.49946 4.00388C5.49527 4.00388 6.7983 4.44874 8.52508 4.93597C10.0082 5.34906 11.6079 5.74097 12.4977 5.85748V9.33165L10.8239 10.7086L12.4977 12.1491V16.9049C11.6397 17.3922 10.6438 17.551 9.78574 17.551C8.19668 17.551 6.73474 17.1062 5.52705 15.7716L10.04 13.579V6.06932L4.53124 8.52666C5.1033 7.06497 6.17327 5.97399 7.34918 5.26433L7.3174 5.17959C4.04392 6.06932 1.06708 9.06685 1.06708 12.7741C1.06708 17.2121 4.61599 20.5062 8.71577 20.5062C13.1546 20.5062 15.7606 17.032 15.7182 13.3566H15.6335C14.9873 14.7653 13.9067 16.0999 12.6884 16.799V12.1597L14.4364 10.751L12.6884 9.34224V5.86807C14.3093 5.86807 15.9831 4.79828 15.9831 2.73284M6.68177 14.9666L5.39993 15.6127C4.61599 14.5959 4.09689 13.1554 4.09689 11.3018C4.09689 10.5391 4.18164 9.50112 4.43589 8.77028L6.70296 7.75345L6.67118 14.956L6.68177 14.9666ZM27.3078 8.8656L26.4497 9.54349L23.8331 7.21325L20.8033 9.55409V0.508518L16.6823 3.35777C17.159 3.51665 17.7311 3.77085 17.7311 4.87242V17.3816L16.3221 18.4514L16.4492 18.5785L17.159 18.0912L19.6168 20.3367L22.9114 18.1442L22.8055 17.9853L21.9686 18.5361L20.8244 17.3922V9.85066L21.6084 9.27869L23.4093 10.8463V17.4028C23.4093 21.5548 22.4877 22.4128 20.6232 23.0907V23.1966C23.7271 23.3237 26.5239 22.2751 26.5239 16.9579V9.80829L27.4561 9.04567L27.329 8.88679L27.3078 8.8656ZM32.8378 20.305L37.6155 16.4707L37.4884 16.2906L34.9883 18.2713L32.1174 16.0046V14.5959L37.0753 11.1005L34.5751 7.21325L29.0664 10.2426V17.4451L27.9964 18.2819L28.1235 18.4408L29.1405 17.6358L32.8484 20.3261H32.8378V20.305ZM32.1068 14.2993V8.84442L34.5116 12.6046L32.1068 14.2993ZM57.3729 1.70541C57.3729 1.36647 57.2882 1.08049 57.161 0.688582H57.0869C56.7479 1.61009 56.3771 2.09732 55.3071 2.09732C54.3749 2.09732 53.6333 1.52535 53.2413 1.10167C53.2413 1.13345 50.1056 4.72413 50.1056 4.72413L50.2645 4.85124L51.1544 3.83441C51.8324 4.35341 52.4362 4.95716 53.9405 4.97834V14.1298L47.5207 3.00823C47.0228 2.17146 46.1647 0.921606 44.7028 0.921606C42.976 0.921606 41.673 2.40449 41.8848 4.91479H41.9908C42.1179 4.28986 42.4887 3.50605 43.2408 3.50605C43.8447 3.50605 44.332 4.07802 44.618 4.59703V8.17713C42.637 8.17713 41.5141 9.09863 41.5141 10.6557C41.5141 11.3018 41.9908 12.7105 43.3362 12.9541V12.88C43.1561 12.6999 42.976 12.541 42.976 12.1703C42.976 11.5666 43.4209 11.2382 44.2261 11.2382C44.3532 11.2382 44.5439 11.27 44.618 11.2912V15.9305C42.2874 15.9622 40.4971 17.2333 40.4971 19.4364C40.4971 21.6396 42.298 22.4869 44.1731 22.381V22.3069C42.9972 22.1797 42.3933 21.576 42.3933 20.7181C42.3933 19.786 43.0713 19.2775 43.9294 19.2775C44.7875 19.2775 45.4443 19.8283 45.9952 20.4533L49.131 16.9261L49.0038 16.799L48.1987 17.7205C46.991 16.6507 46.2177 16.1529 44.8299 15.9411V4.94657L53.6863 20.3791H54.163V4.99953C55.858 4.89361 57.3729 3.62257 57.3729 1.70541ZM60.3498 20.2838L65.1275 16.4495L65.0004 16.2694L62.5003 18.2501L59.6294 15.9834V14.5747L64.5873 11.0793L62.0871 7.19207L56.5784 10.2214V17.4239L55.5084 18.2607L55.6355 18.4196L56.6525 17.6146L60.3604 20.305L60.3498 20.2838ZM59.6188 14.2781V8.82324L62.0236 12.5834L59.6188 14.2781ZM82.0987 8.43133L81.3678 8.98212L79.2808 7.20266L76.8548 9.3952L77.8507 10.3273V18.5043L75.3717 16.8096V10.179L76.2298 9.57527L73.6767 7.20266L71.3037 9.3952L72.2995 10.3273V18.2289L72.1406 18.3349L69.81 16.6401V10.1472C69.81 8.63258 69.0472 8.18772 68.0832 7.59457C67.2781 7.09674 66.8543 6.63069 66.8543 5.86807C66.8543 5.0313 67.5853 4.69236 67.8184 4.56525C66.9815 4.53348 64.6614 5.37025 64.6084 7.48865C64.5767 8.57962 65.1064 9.05626 65.6572 9.57527C66.2081 10.0943 66.7272 10.5921 66.7272 11.5136V17.8794L65.6043 18.7691L65.7314 18.8962L66.8014 18.0595L69.5875 20.3261L72.2466 18.4725L75.1704 20.3261L80.9122 16.9367V9.57527L82.1941 8.57962L82.0882 8.42074L82.0987 8.43133ZM101.326 2.24561L100.235 3.24125L97.7775 1.10167L94.4617 3.76026V1.26055H94.2604V19.1928C93.9002 19.1398 93.1374 18.928 92.3005 18.8009V3.79204C92.3005 2.70106 91.5166 1.17581 89.5568 1.17581C87.5969 1.17581 86.368 2.82817 86.368 4.25809H86.4528C86.5587 3.61197 87.0037 3.02941 87.6499 3.02941C88.2961 3.02941 88.8999 3.4425 88.8999 4.91479V9.19396C87.046 9.2681 85.9231 10.4226 85.9231 11.6725C85.9231 12.3821 86.368 13.7061 87.777 13.7591V13.6532C87.3003 13.4519 87.2049 13.2083 87.2049 12.9435C87.2049 12.3186 87.8088 12.1068 88.6457 12.1068H88.847V19.0021C87.2579 19.5529 86.5163 20.6227 86.5163 21.9467C86.5163 23.7685 87.9783 25.1773 90.1182 25.1773C91.6331 25.1773 92.7031 24.9125 94.0909 24.6053C95.2138 24.3723 96.4321 24.1075 97.0889 24.1075C97.9258 24.1075 98.2966 24.4782 98.2966 25.0714C98.2966 25.834 98.0106 26.2153 97.5656 26.353V26.4589C99.3666 26.12 100.415 25.082 100.415 23.4614C100.415 21.8408 98.8263 20.771 97.0465 20.771C96.1249 20.771 94.4617 21.057 93.1057 21.3748C91.5908 21.7137 90.2877 21.8726 89.811 21.8726C89.0483 21.8726 88.116 21.5336 88.116 20.5168C88.116 19.5953 88.8788 18.8645 90.7539 18.8645C91.7709 18.8645 92.7667 19.0233 94.0167 19.3093C95.3515 19.5953 96.2626 19.9872 97.4067 19.9872C98.9958 19.9872 100.278 19.4152 100.278 17.085V3.48487L101.454 2.41508L101.326 2.2562V2.24561ZM96.8347 9.42698C96.5486 9.74474 96.2096 9.99895 95.6588 9.99895C95.0549 9.99895 94.7371 9.68119 94.4511 9.42698V4.03565L95.235 3.41073L96.8241 4.7665V9.43757L96.8347 9.42698ZM96.8347 11.9797C96.5698 11.7149 96.2308 11.4818 95.6588 11.4818C95.0867 11.4818 94.6947 11.7678 94.4511 11.9797V9.68119C94.6841 9.88244 95.0761 10.2002 95.6588 10.2002C96.2414 10.2002 96.5804 9.9354 96.8347 9.68119V11.9797ZM96.8347 17.3816C96.8347 18.2713 96.3897 19.2669 95.2456 19.2669C95.0655 19.2669 94.6418 19.2352 94.4617 19.214V12.2445C94.7265 12.0114 95.0655 11.6937 95.6694 11.6937C96.2202 11.6937 96.5275 11.9585 96.8453 12.2445V17.3922L96.8347 17.3816ZM106.136 20.2838L111.465 16.9685V9.71296L108.022 7.18148L102.693 10.232V17.4133L101.644 18.2501L101.75 18.409L102.608 17.6993L106.136 20.2838ZM105.744 16.5236V8.79146L108.403 10.7722V18.5043L105.744 16.5236ZM121.645 7.36154C121.232 7.64753 120.861 7.80641 120.469 7.80641C120.056 7.80641 119.537 7.54161 119.262 7.20266C119.262 7.23444 117.281 9.34224 117.281 9.34224L115.3 7.20266L112.068 9.44816L112.174 9.62823L113.033 9.05626L114.208 10.3379V17.3604L112.799 18.4302L112.927 18.5573L113.636 18.0701L116.274 20.3156L119.611 18.1018L119.505 17.9429L118.647 18.462L117.291 17.2333V9.52231C117.842 10.1261 118.467 10.6451 119.219 10.6451C120.575 10.6451 121.486 9.02449 121.645 7.35095M134.231 17.7417L133.235 18.3666L127.726 10.1472L128.012 9.75533C128.616 10.1155 129.156 10.6133 130.311 10.6133C131.466 10.6133 132.928 9.4058 133.055 7.19207C132.769 7.58397 132.197 8.05002 131.254 8.05002C130.576 8.05002 129.898 7.60516 129.485 7.19207L125.724 12.7211L130.714 20.3156L134.337 17.9112L134.231 17.7311V17.7417ZM127.546 17.9429L126.709 18.4937L125.565 17.3498V0.508518L121.444 3.35777C121.921 3.51665 122.493 3.77085 122.493 4.87242V17.3816L121.084 18.4514L121.211 18.5785L121.921 18.0912L124.378 20.3367L127.673 18.1442L127.567 17.9853L127.546 17.9429ZM151.795 2.70106C151.795 0.561478 149.761 -0.0846342 148.055 -0.0104902V0.20135C149.072 0.275494 149.856 0.688582 149.856 1.37706C149.856 1.8537 149.517 2.44685 148.5 2.44685C147.695 2.44685 146.36 1.97021 145.11 1.55713C143.733 1.08049 142.42 0.635622 141.328 0.635622C139.189 0.635622 137.568 2.22442 137.568 4.18394C137.568 5.77274 138.797 6.32353 139.294 6.52477L139.326 6.45063C139.008 6.23879 138.807 6.00577 138.807 5.32788C138.807 4.75591 139.22 3.99329 140.322 3.99329C141.318 3.99329 142.621 4.43815 144.348 4.92538C145.831 5.33847 147.43 5.73037 148.32 5.84689V9.32106L146.647 10.698L148.32 12.1385V16.8943C147.462 17.3816 146.466 17.5405 145.608 17.5405C144.019 17.5405 142.547 17.0956 141.35 15.761L145.863 13.5685V6.06932L140.354 8.52666C140.926 7.06497 141.996 5.97399 143.172 5.26433L143.14 5.17959C139.877 6.06932 136.9 9.06685 136.9 12.7741C136.9 17.2121 140.449 20.5062 144.549 20.5062C148.988 20.5062 151.594 17.032 151.551 13.3566H151.477C150.831 14.7653 149.75 16.0999 148.532 16.799V12.1597L150.28 10.751L148.532 9.34224V5.86807C150.153 5.86807 151.827 4.79828 151.827 2.73284M142.526 14.9772L141.244 15.6233C140.46 14.6065 139.941 13.166 139.941 11.3124C139.941 10.5497 140.015 9.51172 140.28 8.78087L142.547 7.76404L142.515 14.9666L142.526 14.9772ZM155.164 1.93844L152.865 3.86618L154.825 6.07991L157.124 4.15217L155.164 1.93844ZM158.66 17.9853L157.823 18.5361L156.679 17.3922V9.7977L157.643 9.03508L157.516 8.8762L156.711 9.50113L154.804 7.23444L151.668 9.42698L151.774 9.60704L152.558 9.08804L153.607 10.3909V17.3922L152.198 18.462L152.325 18.5891L153.035 18.1018L155.492 20.3473L158.787 18.1548L158.681 17.9959L158.66 17.9853ZM176.277 17.8794L175.493 18.3984L174.264 17.2227V9.77652L175.26 9.01389L175.133 8.85501L174.243 9.5329L171.627 7.20266L168.682 9.50113L166.097 7.20266L163.194 9.46935L161.234 7.20266L158.098 9.3952L158.204 9.57527L158.988 9.05626L160.111 10.3379V17.3392L159.253 18.1972L161.753 20.3156L164.179 18.123L163.183 17.1909V9.73415L163.83 9.25751L165.631 10.8251V17.3498L164.794 18.2077L167.326 20.3261L169.699 18.1336L168.703 17.2015V9.74474L169.328 9.24692L171.15 10.8357V17.2545L170.419 18.0171L172.972 20.3473L176.341 18.0489L176.235 17.89H176.256L176.277 17.8794ZM185.388 16.2906L182.888 18.2713L180.017 16.0046V14.5959L184.975 11.1005L182.475 7.21325L176.966 10.2426V17.5828L180.748 20.3261L185.526 16.4918L185.399 16.3118L185.388 16.2906ZM180.006 14.2993V8.84442L182.411 12.6046L180.006 14.2993ZM194.965 13.2719L192.846 11.6513C194.255 10.4226 194.753 8.86561 194.753 7.74285C194.753 7.58397 194.721 7.29799 194.7 7.03319H194.615C194.414 7.60516 193.852 8.10298 192.994 8.10298C192.136 8.10298 191.659 7.62634 191.14 7.05437L186.288 9.74474V13.685L188.142 15.1467C186.288 16.7884 185.928 17.8053 185.928 18.7479C185.928 19.6906 186.479 20.5168 187.422 20.8875L187.496 20.7604C187.263 20.5592 187.051 20.4215 187.051 19.9237C187.051 19.5635 187.422 18.9916 188.259 18.9916C189.329 18.9916 189.986 19.7224 190.325 20.1143C190.325 20.0825 194.965 17.2651 194.965 17.2651V13.2719ZM193.874 10.0413C193.143 11.3441 191.532 12.6258 190.579 13.3566L189.403 12.361V8.52666C189.88 9.57527 190.844 10.4544 192.094 10.4544C192.825 10.4544 193.301 10.3273 193.863 10.0413M191.85 18.6526C191.299 17.4239 190.123 16.5342 188.82 16.5342C188.502 16.5342 187.538 16.5024 186.702 17.0214C187.199 16.1847 188.683 14.6806 190.568 13.5473L191.85 14.6171V18.642V18.6526Z" fill="black"/>
</g>
<defs>
<clipPath id="clip0_2702_91">
<rect width="195" height="26.48" fill="white" transform="translate(0.5)"/>
</clipPath>
</defs>
</svg>
