<svg width="19" height="20" viewBox="0 0 19 20" fill="none" xmlns="http://www.w3.org/2000/svg">
<g clip-path="url(#clip0_2702_190)">
<path d="M18.04 5.7931H15.315C15.601 5.4531 15.808 5.0531 15.921 4.6231C16.0318 4.23439 16.0595 3.82669 16.0021 3.42659C15.9447 3.02649 15.8036 2.64298 15.588 2.3011C15.3734 1.95722 15.0892 1.66205 14.7537 1.43455C14.4183 1.20705 14.0389 1.05225 13.64 0.980095C12.8191 0.830241 11.9719 0.995966 11.268 1.4441C10.8603 1.73544 10.5147 2.10505 10.2513 2.53135C9.98797 2.95765 9.81211 3.43212 9.73401 3.9271L9.59301 4.7241L9.45101 3.8771C9.37211 3.38753 9.19676 2.9185 8.93514 2.49724C8.67353 2.07598 8.33086 1.71087 7.92701 1.4231C7.2231 0.974966 6.3759 0.809241 5.55501 0.959095C5.15616 1.03131 4.77681 1.18613 4.44134 1.41363C4.10586 1.64112 3.82167 1.93626 3.60701 2.2801C3.39166 2.6219 3.2507 3.00523 3.19333 3.40513C3.13596 3.80503 3.16345 4.21253 3.27401 4.60109C3.39101 5.03009 3.59801 5.4291 3.88001 5.7721H1.15501C0.955047 5.77469 0.764002 5.85527 0.622595 5.99668C0.481188 6.13809 0.400601 6.32913 0.39801 6.5291V10.2031C0.400601 10.4031 0.481188 10.5941 0.622595 10.7355C0.764002 10.8769 0.955047 10.9575 1.15501 10.9601H1.57901V18.4901C1.57901 18.7578 1.68528 19.0145 1.87448 19.2039C2.06367 19.3933 2.32031 19.4998 2.58801 19.5001H16.718C16.9773 19.5004 17.2267 19.401 17.4147 19.2225C17.6028 19.044 17.7149 18.8 17.728 18.5411V10.9811H18.152C18.3527 10.9808 18.5451 10.901 18.687 10.7591C18.8289 10.6172 18.9087 10.4248 18.909 10.2241V6.5501C18.9099 6.44072 18.887 6.33245 18.8422 6.2327C18.7973 6.13296 18.7313 6.0441 18.6489 5.9722C18.5665 5.90031 18.4695 5.84708 18.3645 5.81617C18.2596 5.78525 18.1483 5.77738 18.04 5.7931ZM10.844 4.1681C10.9414 3.47986 11.3038 2.8569 11.854 2.4321C12.322 2.13695 12.8827 2.02545 13.428 2.1191C13.6755 2.16419 13.9109 2.26017 14.1194 2.40098C14.3278 2.54179 14.5048 2.72435 14.639 2.9371C14.7696 3.15288 14.8548 3.39299 14.8896 3.6428C14.9243 3.89261 14.9078 4.14688 14.841 4.3901C14.705 4.87072 14.4094 5.29074 14.003 5.5811H10.572L10.844 4.1681ZM4.57601 2.8861C4.71237 2.67323 4.89118 2.4908 5.10128 2.35022C5.31138 2.20964 5.54823 2.11394 5.79701 2.0691C6.33943 1.97679 6.89682 2.08827 7.36201 2.3821C7.63611 2.59096 7.86638 2.85177 8.03968 3.14964C8.21297 3.4475 8.3259 3.77659 8.37201 4.1181L8.61401 5.5711H5.18201C4.77576 5.28099 4.48024 4.86135 4.34401 4.3811C4.2712 4.13164 4.25156 3.86968 4.28636 3.61216C4.32115 3.35464 4.40961 3.10728 4.54601 2.8861H4.57601ZM1.54801 6.9241H9.08801V9.8901H1.50801L1.54801 6.9241ZM2.72901 11.0521H9.08801V18.3391H2.72901V11.0521ZM16.506 18.3391H10.158V11.0321H16.506V18.3391ZM17.687 9.8711H10.157V6.9041H17.687V9.8701V9.8711Z" fill="#121212"/>
</g>
<defs>
<clipPath id="clip0_2702_190">
<rect width="19" height="20" fill="white"/>
</clipPath>
</defs>
</svg>
