<svg width="33" height="32" viewBox="0 0 33 32" fill="none" xmlns="http://www.w3.org/2000/svg">
<path d="M2.80797 27.3976C2.66998 27.3967 2.53396 27.3648 2.40993 27.3043C2.28591 27.2438 2.17703 27.1563 2.09131 27.0482C2.0056 26.94 1.94525 26.814 1.91469 26.6795C1.88413 26.5449 1.88415 26.4052 1.91475 26.2707C4.44692 15.2028 10.5367 9.4804 19.0709 10.0202V5.04631C19.0804 4.857 19.1393 4.67348 19.2418 4.51406C19.3444 4.35464 19.4869 4.2249 19.6553 4.13779C19.8312 4.05542 20.0271 4.02552 20.2196 4.05168C20.4121 4.07784 20.5929 4.15894 20.7405 4.28527L32.1422 14.0049C32.3563 14.2073 32.4827 14.4855 32.4942 14.7799C32.4741 15.071 32.3431 15.3434 32.1283 15.5409L20.7252 25.2174C20.5707 25.3295 20.3908 25.4014 20.2017 25.4269C20.0125 25.4524 19.82 25.4306 19.6414 25.3635C19.468 25.2791 19.3215 25.1481 19.2183 24.9852C19.1151 24.8223 19.0592 24.6339 19.057 24.4411V19.1861C7.34501 17.927 3.78884 26.3889 3.64136 26.7687C3.58255 26.9461 3.47121 27.1013 3.32211 27.2139C3.17302 27.3264 2.99322 27.391 2.80657 27.399L2.80797 27.3976ZM16.7878 17.2967C17.8648 17.2938 18.9407 17.3673 20.0073 17.5166C20.2452 17.5661 20.4606 17.6913 20.6216 17.8733C20.7826 18.0553 20.8804 18.2845 20.9005 18.5267V22.7284L30.225 14.823L20.9005 6.9037V10.9148C20.8962 11.0552 20.8642 11.1933 20.8065 11.3213C20.7487 11.4492 20.6662 11.5645 20.5638 11.6606C20.4598 11.7506 20.339 11.8191 20.2084 11.8621C20.0777 11.9051 19.9399 11.9217 19.8027 11.911C13.1134 11.1639 8.16588 14.4849 5.2664 21.5416C8.39435 18.6534 12.5309 17.1082 16.7864 17.2383L16.7878 17.2967Z" fill="#121212"/>
</svg>
