<svg width="10" height="13" viewBox="0 0 10 13" fill="none" xmlns="http://www.w3.org/2000/svg">
<g clip-path="url(#clip0_2702_271)">
<path fill-rule="evenodd" clip-rule="evenodd" d="M9.1 7.0655C9.1 6.76 8.879 6.513 8.58 6.4285C7.7545 6.201 7.15 5.447 7.15 4.55V1.3H7.8C8.1575 1.3 8.45 1.0075 8.45 0.65C8.45 0.2925 8.1575 0 7.8 0H1.3C0.9425 0 0.65 0.2925 0.65 0.65C0.65 1.0075 0.9425 1.3 1.3 1.3H1.95V4.55C1.95 5.447 1.3455 6.201 0.52 6.4285C0.221 6.513 0 6.76 0 7.0655V7.15C0 7.5075 0.2925 7.8 0.65 7.8H3.887L3.9 12.35C3.9 12.7075 4.1925 13 4.55 13C4.9075 13 5.2 12.7075 5.2 12.35L5.187 7.8H8.45C8.8075 7.8 9.1 7.5075 9.1 7.15V7.0655Z" fill="#363636"/>
</g>
<defs>
<clipPath id="clip0_2702_271">
<rect width="10" height="13" fill="white"/>
</clipPath>
</defs>
</svg>
