<svg width="19" height="21" viewBox="0 0 19 21" fill="none" xmlns="http://www.w3.org/2000/svg">
<g clip-path="url(#clip0_2702_1704)">
<path d="M18.04 6.65345H15.315C15.601 6.31345 15.808 5.91345 15.921 5.48345C16.0318 5.09475 16.0595 4.68704 16.0021 4.28694C15.9447 3.88684 15.8036 3.50333 15.588 3.16145C15.3734 2.81757 15.0892 2.5224 14.7537 2.2949C14.4183 2.0674 14.0389 1.9126 13.64 1.84045C12.8191 1.69059 11.9719 1.85632 11.268 2.30445C10.8603 2.5958 10.5147 2.9654 10.2513 3.3917C9.98797 3.818 9.81211 4.29247 9.73401 4.78745L9.59301 5.58445L9.45101 4.73745C9.37211 4.24788 9.19676 3.77885 8.93514 3.35759C8.67353 2.93633 8.33086 2.57122 7.92701 2.28345C7.2231 1.83532 6.3759 1.66959 5.55501 1.81945C5.15616 1.89166 4.77681 2.04648 4.44134 2.27398C4.10586 2.50148 3.82167 2.79662 3.60701 3.14045C3.39166 3.48225 3.2507 3.86559 3.19333 4.26548C3.13596 4.66538 3.16345 5.07288 3.27401 5.46145C3.39101 5.89045 3.59801 6.28945 3.88001 6.63245H1.15501C0.955047 6.63504 0.764002 6.71562 0.622595 6.85703C0.481188 6.99844 0.400601 7.18948 0.39801 7.38945V11.0634C0.400601 11.2634 0.481188 11.4545 0.622595 11.5959C0.764002 11.7373 0.955047 11.8179 1.15501 11.8204H1.57901V19.3504C1.57901 19.6181 1.68528 19.8749 1.87448 20.0643C2.06367 20.2537 2.32031 20.3602 2.58801 20.3604H16.718C16.9773 20.3608 17.2267 20.2614 17.4147 20.0829C17.6028 19.9044 17.7149 19.6604 17.728 19.4014V11.8414H18.152C18.3527 11.8412 18.5451 11.7613 18.687 11.6194C18.8289 11.4775 18.9087 11.2851 18.909 11.0844V7.41045C18.9099 7.30107 18.887 7.1928 18.8422 7.09305C18.7973 6.99331 18.7313 6.90445 18.6489 6.83255C18.5665 6.76066 18.4695 6.70743 18.3645 6.67652C18.2596 6.64561 18.1483 6.63774 18.04 6.65345ZM10.844 5.02845C10.9414 4.34021 11.3038 3.71725 11.854 3.29245C12.322 2.9973 12.8827 2.8858 13.428 2.97945C13.6755 3.02454 13.9109 3.12053 14.1194 3.26133C14.3278 3.40214 14.5048 3.5847 14.639 3.79745C14.7696 4.01323 14.8548 4.25334 14.8896 4.50315C14.9243 4.75296 14.9078 5.00723 14.841 5.25045C14.705 5.73107 14.4094 6.15109 14.003 6.44145H10.572L10.844 5.02845ZM4.57601 3.74645C4.71237 3.53358 4.89118 3.35115 5.10128 3.21057C5.31138 3.06999 5.54823 2.97429 5.79701 2.92945C6.33943 2.83714 6.89682 2.94862 7.36201 3.24245C7.63611 3.45131 7.86638 3.71213 8.03968 4.00999C8.21297 4.30785 8.3259 4.63694 8.37201 4.97845L8.61401 6.43145H5.18201C4.77576 6.14134 4.48024 5.7217 4.34401 5.24145C4.2712 4.99199 4.25156 4.73003 4.28636 4.47251C4.32115 4.21499 4.40961 3.96763 4.54601 3.74645H4.57601ZM1.54801 7.78445H9.08801V10.7504H1.50801L1.54801 7.78445ZM2.72901 11.9124H9.08801V19.1994H2.72901V11.9124ZM16.506 19.1994H10.158V11.8924H16.506V19.1994ZM17.687 10.7314H10.157V7.76445H17.687V10.7304V10.7314Z" fill="#121212"/>
</g>
<defs>
<clipPath id="clip0_2702_1704">
<rect width="19" height="20" fill="white" transform="translate(0 0.859375)"/>
</clipPath>
</defs>
</svg>
