<svg width="33" height="33" viewBox="0 0 33 33" fill="none" xmlns="http://www.w3.org/2000/svg">
<path d="M2.80797 28.2575C2.66998 28.2565 2.53396 28.2247 2.40993 28.1642C2.28591 28.1037 2.17703 28.0162 2.09131 27.908C2.0056 27.7999 1.94525 27.6739 1.91469 27.5393C1.88413 27.4048 1.88415 27.2651 1.91475 27.1305C4.44692 16.0627 10.5367 10.3403 19.0709 10.8801V5.90617C19.0804 5.71686 19.1393 5.53334 19.2418 5.37392C19.3444 5.21451 19.4869 5.08477 19.6553 4.99765C19.8312 4.91528 20.0271 4.88539 20.2196 4.91154C20.4121 4.9377 20.5929 5.0188 20.7405 5.14513L32.1422 14.8648C32.3563 15.0672 32.4827 15.3453 32.4942 15.6397C32.4741 15.9309 32.3431 16.2032 32.1283 16.4008L20.7252 26.0773C20.5707 26.1893 20.3908 26.2613 20.2017 26.2868C20.0125 26.3123 19.82 26.2905 19.6414 26.2234C19.468 26.139 19.3215 26.008 19.2183 25.8451C19.1151 25.6822 19.0592 25.4938 19.057 25.301V20.046C7.34501 18.7869 3.78884 27.2488 3.64136 27.6286C3.58255 27.8059 3.47121 27.9612 3.32211 28.0737C3.17302 28.1863 2.99322 28.2509 2.80657 28.2589L2.80797 28.2575ZM16.7878 18.1566C17.8648 18.1537 18.9407 18.2271 20.0073 18.3764C20.2452 18.426 20.4606 18.5511 20.6216 18.7332C20.7826 18.9152 20.8804 19.1444 20.9005 19.3865V23.5883L30.225 15.6829L20.9005 7.76356V11.7747C20.8962 11.915 20.8642 12.0531 20.8065 12.1811C20.7487 12.3091 20.6662 12.4244 20.5638 12.5204C20.4598 12.6105 20.339 12.6789 20.2084 12.7219C20.0777 12.7649 19.9399 12.7816 19.8027 12.7709C13.1134 12.0237 8.16588 15.3448 5.2664 22.4015C8.39435 19.5132 12.5309 17.968 16.7864 18.0982L16.7878 18.1566Z" fill="#121212"/>
</svg>
